Coordinates
version=1
nRows=8
nColumns=40
inDegrees=yes

Units are S.I. units (second, meters, Newtons, ...)
If the header above contains a line with 'inDegrees', this indicates whether rotational values are in degrees (yes) or radians (no).

endheader
time	pelvis_tilt	pelvis_list	pelvis_rotation	pelvis_tx	pelvis_ty	pelvis_tz	hip_flexion_r	hip_adduction_r	hip_rotation_r	knee_angle_r	knee_angle_r_beta	ankle_angle_r	subtalar_angle_r	mtp_angle_r	hip_flexion_l	hip_adduction_l	hip_rotation_l	knee_angle_l	knee_angle_l_beta	ankle_angle_l	subtalar_angle_l	mtp_angle_l	lumbar_extension	lumbar_bending	lumbar_rotation	arm_flex_r	arm_add_r	arm_rot_r	elbow_flex_r	pro_sup_r	wrist_flex_r	wrist_dev_r	arm_flex_l	arm_add_l	arm_rot_l	elbow_flex_l	pro_sup_l	wrist_flex_l	wrist_dev_l
      0.21000000	     10.70220536	      2.03876503	     -5.29848679	      0.05414756	      1.05536698	     -0.22840351	    -15.38492415	     -6.82886290	     -1.62896769	     42.37885592	      0.73965057	    -14.18177973	      0.00000000	      0.00000000	      2.39099834	      0.71391035	     -6.70753876	     10.13656660	      0.17691646	     -4.76885069	      0.00000000	      0.00000000	    -27.15133230	     -9.93138862	      4.46150988	     -2.66182934	      1.56660887	    -10.66502983	     46.60177068	     89.33639416	     -0.36698929	     12.35050247	     -7.08264929	     -2.68980296	    -16.89541506	     31.20251562	     89.50372308	    -11.73967892	      3.50088712
      0.22000000	     10.51349623	      2.11642987	     -5.43748626	      0.06461783	      1.05649771	     -0.23035696	    -13.44421037	     -6.98693809	     -0.89270677	     45.42436000	      0.79280464	    -15.10993135	      0.00000000	      0.00000000	      1.84453141	      0.97572157	     -6.90199353	      9.91340076	      0.17302148	     -4.26817162	      0.00000000	      0.00000000	    -26.94677145	     -9.95245997	      4.32895596	     -2.72051433	      1.55489460	    -10.36030331	     46.02157999	     89.35120066	     -0.30500072	     12.87930173	     -6.54261696	     -2.78640479	    -16.79171865	     31.67945039	     89.50351226	    -11.45474412	      3.77622961
      0.23000000	     10.27695503	      2.14943117	     -5.62316536	      0.07485027	      1.05741357	     -0.23213346	    -11.39349634	     -7.03438792	     -0.04947983	     48.40330437	      0.84479703	    -15.50645109	      0.00000000	      0.00000000	      1.33219351	      1.18435542	     -7.13304426	      9.63796926	      0.16821430	     -3.82066851	      0.00000000	      0.00000000	    -26.69396145	     -9.92888787	      4.19651292	     -2.72346727	      1.51521272	    -10.01982563	     45.45498943	     89.36475217	     -0.01858057	     13.51863721	     -6.02509097	     -2.86971414	    -16.80420059	     32.25099252	     89.50564107	    -11.08873228	      4.02795480
      0.24000000	     10.39049365	      2.03964190	     -5.55654649	      0.08491406	      1.05888581	     -0.23422869	     -9.86795912	     -6.84585593	      0.55887710	     50.98049468	      0.88977749	    -15.66063412	      0.00000000	      0.00000000	      0.38452899	      1.30781031	     -6.80424026	      9.20840285	      0.16071695	     -3.45439885	      0.00000000	      0.00000000	    -26.95359567	     -9.68948828	      3.96447219	     -2.76361121	      1.44396647	     -9.76193008	     45.11228491	     89.38029611	      0.13985183	     13.80324255	     -5.37260494	     -2.97938241	    -16.54464324	     32.87607219	     89.50449114	    -10.91860503	      4.02845658
      0.25000000	     10.05039489	      2.05927889	     -5.87076693	      0.09460337	      1.05935828	     -0.23573781	     -7.61834272	     -6.78643938	      1.51746948	     53.73716914	      0.93789053	    -14.95326348	      0.00000000	      0.00000000	      0.00597321	      1.48977183	     -7.28395825	      8.91476064	      0.15559193	     -3.10196393	      0.00000000	      0.00000000	    -26.58406811	     -9.69821748	      3.63485552	     -2.43980840	      1.34696472	     -9.35025494	     44.39942075	     89.39481589	      1.80641258	     15.49559281	     -5.06807122	     -3.00414891	    -17.22895606	     33.86045152	     89.50934328	     -9.75676866	      4.76298768
      0.26000000	      9.93761990	      1.94003461	     -5.96146461	      0.10427327	      1.06025331	     -0.23740189	     -5.77326363	     -6.51311288	      2.20621206	     56.04624974	      0.97819159	    -14.16851479	      0.00000000	      0.00000000	     -0.67464062	      1.56310474	     -7.26669535	      8.49936965	      0.14834198	     -2.77744636	      0.00000000	      0.00000000	    -26.54116450	     -9.48079602	      3.56749994	     -2.42708872	      1.24741688	     -9.04926375	     44.00054658	     89.40961499	      1.93225445	     15.88829063	     -4.36664152	     -3.13494960	    -16.95027910	     34.48010487	     89.50932704	     -9.59322945	      4.79004339
      0.27000000	      9.84901617	      1.78566832	     -6.05017359	      0.11388782	      1.06109608	     -0.23901016	     -3.99323212	     -6.17382844	      2.84129872	     58.10465597	      1.01411756	    -13.01098889	      0.00000000	      0.00000000	     -1.38928632	      1.60014257	     -7.28102762	      8.06806580	      0.14081431	     -2.48663779	      0.00000000	      0.00000000	    -26.52287838	     -9.21677899	      3.42215165	     -2.35953284	      1.15574503	     -8.80833229	     43.62899136	     89.42122066	      2.23706055	     16.39031598	     -3.69912628	     -3.26519360	    -16.74395635	     35.10675536	     89.50806627	     -9.47692169	      4.74585991
      0.28000000	      9.94997379	      1.48070559	     -5.96543532	      0.12355877	      1.06229456	     -0.24072807	     -2.57300407	     -5.66824896	      3.18784026	     59.73698810	      1.04260713	    -11.74390936	      0.00000000	      0.00000000	     -2.36372431	      1.49821549	     -7.00796664	      7.53513071	      0.13151284	     -2.25655222	      0.00000000	      0.00000000	    -26.75758107	     -8.75059019	      3.23911684	     -2.33853841	      1.06339527	     -8.64374592	     43.36297718	     89.43289426	      2.40013112	     16.62379791	     -2.98024843	     -3.40518341	    -16.42545160	     35.80225829	     89.50577785	     -9.40858498	      4.63658582
